HIERARCHY
ROOT pelvis
{
  OFFSET 0 100 0
  CHANNELS 6 Xposition Yposition Zposition Zrotation Xrotation Yrotation
  JOINT pelvis_right_femur
  {
    OFFSET -10.78128 -3.44521 -0.5502486
    CHANNELS 3 Zrotation Xrotation Yrotation
    JOINT right_femur_tibia
    {
      OFFSET -0.8047443 -44.0398 -0.1307829
      CHANNELS 3 Zrotation Xrotation Yrotation
      JOINT right_tibia_foot
      {
        OFFSET 3.006224 -47.83518 -5
        CHANNELS 3 Zrotation Xrotation Yrotation
        End Site
        {
          OFFSET 0 -5 15
        }
      }
    }
  }
  JOINT pelvis_left_femur
  {
    OFFSET 10.78128 -3.44521 -0.5502486
    CHANNELS 3 Zrotation Xrotation Yrotation
    JOINT left_femur_tibia
    {
      OFFSET 0.8047443 -44.0398 -0.1307829
      CHANNELS 3 Zrotation Xrotation Yrotation
      JOINT left_tibia_foot
      {
        OFFSET -4.370144 -48.10324 -4.275266
        CHANNELS 3 Zrotation Xrotation Yrotation
        End Site
        {
          OFFSET 0 -5 15
        }
      }
    }
  }
  JOINT pelvis_spine1
  {
    OFFSET 0 6.468898 -3.129235
    CHANNELS 3 Zrotation Xrotation Yrotation
    JOINT spine1
    {
      OFFSET 0 23.15396 4.99043
      CHANNELS 3 Zrotation Xrotation Yrotation
      JOINT spine2
      {
        OFFSET 0 20.79997 -5.064912
        CHANNELS 3 Zrotation Xrotation Yrotation
        JOINT neck
        {
          OFFSET 0 14.38658 9.616178
          CHANNELS 3 Zrotation Xrotation Yrotation
          End Site
          {
            OFFSET 0 20 0
          }
        }
      }
      JOINT right_manubrium
      {
        OFFSET -5.722621 16.35077 3.967754
        CHANNELS 3 Zrotation Xrotation Yrotation
        JOINT right_clavicle
        {
          OFFSET -13.16364 1.694482 -4.693211
          CHANNELS 3 Zrotation Xrotation Yrotation
          JOINT right_humerus
          {
            OFFSET -28.5034 -0.3100689 -2.792744
            CHANNELS 3 Zrotation Xrotation Yrotation
            JOINT right_radius
            {
              OFFSET -25.15693 0.02248979 -1.271978
              CHANNELS 3 Zrotation Xrotation Yrotation
              End Site
              {
                OFFSET -15 0 0
              }
            }
          }
        }
      }
      JOINT left_manubrium
      {
        OFFSET 5.722621 16.35077 3.967754
        CHANNELS 3 Zrotation Xrotation Yrotation
        JOINT left_clavicle
        {
          OFFSET 13.16364 1.694482 -4.693211
          CHANNELS 3 Zrotation Xrotation Yrotation
          JOINT left_humerus
          {
            OFFSET 29.39168 -1.063119 -2.237045
            CHANNELS 3 Zrotation Xrotation Yrotation
            JOINT left_radius
            {
              OFFSET 24.59957 -0.9528479 0.9047498
              CHANNELS 3 Zrotation Xrotation Yrotation
              End Site
              {
                OFFSET 15 -0 -0
              }
            }
          }
        }
      }
    }
  }
}
MOTION
Frames: 19
Frame Time: 0.0416666666667
0 103.5113 0 0.5434966 0.01652761 -0.04782556 3.790799 -19.86838 9.746809 -0 33.71509 -0 -5.062356 -14.59727 -3.002108 -7.252228 9.380765 -22.08794 -0 5.992775 -0 8.762774 -19.5031 27.47448 -3.522867 -3.566077 5.705995 2.371776 10.05602 -7.830672 1.925014 21.16714 6.600814 3.201303 -25.54338 10.09108 5.778337 -20.4523 11.04398 85.54773 34.06054 -19.12589 -0 0 18.0556 -7.515946 8.777965 3.493112 7.39144 -20.41483 -0.4393995 -94.84922 24.48788 22.75633 0 0 -13.51358 11.32684 17.06976 1.309791
0.3989703 103.1792 1.882683 0.345964 0.2571929 -0.06159592 4.107654 -21.17694 9.381575 -0 32.29655 -0 -5.180189 -13.61576 -2.857583 -6.951527 9.888657 -21.39948 -0 6.011515 -0 8.426487 -19.89704 26.77203 -3.424204 -3.413526 5.476172 2.532034 10.10275 -8.032163 1.808638 20.98874 6.727406 3.253812 -25.71812 10.04901 5.667095 -20.23758 11.10242 85.79098 33.95732 -19.47529 -0 0 17.52847 -7.858092 8.923659 3.646438 7.514575 -20.74909 -0.4515523 -94.21134 23.9436 21.93175 0 0 -14.23933 11.79687 16.68597 0.6062928
0.8648273 103.1966 3.256969 0.4096794 2.573593 0.03784204 5.704913 -22.73382 11.36788 -0 35.09816 -0 -4.557972 -14.62088 -2.245506 -7.851819 9.330059 -24.5399 -0 3.502029 -0 13.02614 -18.35924 29.77436 -4.231003 -3.70608 5.53821 3.314044 9.496786 -7.70222 2.003263 20.77003 6.674455 3.236258 -27.2218 10.67231 7.265791 -20.65891 11.51611 83.71361 38.06902 -17.70906 -0 0 18.61554 -4.41831 8.2545 3.375278 6.773492 -18.80296 0.3527266 -96.20489 24.22344 24.8722 0 0 -12.52003 12.4142 16.55517 0.07853735
1.348082 103.2355 4.622868 0.1821842 3.55774 0.2242534 6.570848 -24.22059 11.8559 -0 34.93746 -0 -4.451 -13.97966 -2.016792 -7.846302 9.575789 -25.09648 -0 2.602702 -0 13.67878 -18.38893 29.92329 -4.30552 -3.654568 5.351372 3.670147 9.290695 -7.761136 1.987858 20.48913 6.791979 3.332737 -27.88912 10.84241 7.682802 -20.68277 11.65938 83.16888 39.21482 -17.39611 -0 0 18.85061 -3.615528 8.172423 3.477532 6.586358 -18.3371 0.5509346 -96.7297 24.2902 25.68401 0 0 -12.32378 12.10564 16.30412 0.3915296
1.803464 103.2468 6.505475 -0.5627285 5.15536 0.609092 8.369218 -28.32658 12.0292 -0 32.12605 -0 -4.618022 -11.59487 -1.575685 -7.192286 10.94229 -24.27465 -0 2.175949 -0 13.38948 -18.62903 28.30991 -3.903443 -3.198527 4.673402 4.202085 9.103112 -8.155814 1.686289 19.7678 7.312704 3.579541 -28.82132 10.97443 7.835246 -20.24072 11.88168 83.49134 40.64031 -17.99816 -0 0 17.76927 -3.250719 8.327373 3.954638 6.496702 -18.50418 0.5572435 -95.55022 23.65707 24.7137 0 0 -14.78236 12.31758 14.68813 0.1086523
2.244684 103.1977 8.839091 -1.248135 6.123807 1.088369 9.621225 -31.01503 11.99239 -0 29.67348 -0 -4.930988 -9.688861 -1.298946 -6.555059 11.97506 -23.39857 -0 2.907924 -0 11.94928 -19.08221 26.33659 -3.407226 -2.833401 4.141402 4.532599 8.944069 -8.476468 1.469339 19.23813 7.679779 3.799953 -29.42796 10.98166 7.806731 -19.82634 11.98094 83.87495 41.01768 -18.69417 -0 0 17.0331 -3.323048 8.545495 4.265483 6.459529 -18.71652 0.4721934 -94.96814 23.51099 24.2038 0 0 -16.19374 11.80408 13.81725 0.58395
2.657137 103.1186 11.97256 -2.212639 7.104194 1.704614 11.14507 -34.09339 11.68804 -0 25.99192 -0 -5.559467 -7.216108 -0.9541686 -5.657537 13.40427 -21.70556 -0 5.60204 -0 9.266382 -19.09027 22.97425 -2.484925 -2.272024 3.422562 4.811674 8.773116 -8.866007 1.136516 18.59731 8.197526 4.051731 -29.97875 10.92628 7.489258 -19.10963 12.04607 84.95997 41.1493 -19.99916 -0 0 15.48073 -3.708726 8.857434 4.69735 6.387131 -19.23895 0.2021465 -93.60133 23.21191 22.8684 0 0 -18.84539 11.28293 12.30769 1.12392
3.070071 103.0853 15.81168 -3.06831 7.645674 2.345056 12.13569 -35.63677 11.21181 -0 23.28272 -0 -6.316271 -5.482869 -0.6790675 -4.902047 14.16687 -20.21988 -0 9.841814 -0 6.056714 -18.56316 19.49255 -1.56663 -1.784166 2.857943 4.960699 8.563102 -9.09343 0.8806445 18.19207 8.545398 4.242027 -30.314 10.77126 7.233679 -18.39934 12.0668 85.79543 40.85051 -21.0326 -0 0 14.18973 -4.14303 9.171555 5.028906 6.161341 -19.53768 -0.1176454 -92.85831 23.4054 22.18289 0 0 -20.33847 10.22402 11.38126 2.317107
3.510728 103.2557 20.47935 -3.88031 7.86823 2.96819 12.72199 -35.77978 10.39768 -0 20.98072 -0 -7.282587 -4.241122 -0.4078938 -4.242226 14.25029 -18.46479 -0 16.94804 -0 2.333076 -16.72787 15.47432 -0.4613338 -1.26908 2.416875 4.954723 8.376404 -9.176196 0.600676 17.94087 8.838911 4.35688 -30.43254 10.51069 6.941559 -17.59147 12.07674 86.82072 40.44447 -22.08776 -0 0 12.56044 -4.692552 9.520254 5.447346 5.671678 -19.78354 -0.5878434 -91.98897 23.73715 21.54464 0 0 -21.87446 8.956969 10.25926 3.932667
4.009799 103.7629 25.82008 -4.380555 7.612264 3.457517 12.52409 -33.95923 9.233508 -0 19.75017 -0 -8.300276 -4.009332 -0.2062894 -3.788555 13.06539 -16.82999 -0 25.92186 -0 -1.083816 -13.96101 11.86619 0.450622 -0.8340177 2.256409 4.83622 8.225628 -9.07254 0.3554349 18.01525 8.923033 4.370477 -30.26367 10.06936 6.878057 -16.8213 12.11582 87.42106 40.00207 -22.67795 -0 0 11.08446 -5.354433 9.932321 5.93008 4.938083 -19.81435 -1.108818 -91.52961 24.38592 21.41865 0 0 -22.4079 7.38731 9.561091 5.998178
4.589661 104.76 31.69546 -4.457917 6.887507 3.733262 11.60329 -29.94765 7.809998 -0 19.26777 -0 -9.227192 -4.72313 -0.06995095 -3.580534 10.21138 -15.07286 -0 37.06228 -0 -3.684722 -10.06697 8.917353 1.125271 -0.4977433 2.523621 4.573781 8.295708 -8.810467 0.09141562 18.36745 8.837343 4.275066 -29.75702 9.434869 7.029594 -16.21377 12.24883 87.7632 39.79874 -22.91355 -0 0 9.667493 -6.312254 10.46558 6.64202 3.963998 -19.81816 -1.695535 -91.07999 24.89085 21.54471 0 0 -22.62383 5.896373 8.851025 8.126471
5.223152 106.2381 37.79606 -3.991438 5.666313 3.743343 10.13499 -24.22691 6.356441 -0 18.91936 -0 -9.85934 -6.188392 -0.0360013 -3.51591 5.72132 -13.26219 -0 48.17411 -0 -5.055322 -6.19002 7.226748 1.281828 -0.2771359 3.227118 4.238992 8.629765 -8.455264 -0.1509288 19.01205 8.540324 4.106897 -28.85052 8.600925 7.386277 -15.87297 12.49191 87.56034 39.74724 -22.58056 -0 0 8.634961 -7.727498 11.11836 7.554155 3.018231 -19.90385 -2.229741 -90.71739 25.07392 21.7312 0 0 -22.33915 4.71072 8.454405 9.816495
5.862096 108.0731 43.81207 -3.039962 4.07779 3.522103 8.461223 -17.34538 5.190869 -0 18.14907 -0 -9.968573 -8.009341 -0.03962396 -3.451713 -0.4019503 -11.2796 -0 57.77123 -0 -5.075199 -2.875476 6.919395 0.9441711 -0.1821566 4.389316 3.812463 9.38982 -8.079913 -0.3819546 19.76119 8.121553 3.921072 -27.57708 7.665198 7.792767 -16.01474 12.89601 86.90978 39.87681 -21.72732 -0 0 8.285587 -9.733002 11.87559 8.681942 2.315851 -20.26801 -2.654927 -90.2335 24.4406 21.82816 0 0 -22.06086 4.296517 8.141724 10.4157
6.441436 109.9443 49.47431 -1.846379 2.288227 3.173959 6.949737 -10.41875 4.410626 -0 16.4481 -0 -9.559576 -9.809117 -0.02544055 -3.07958 -7.458537 -9.181367 -0 63.23795 -0 -4.093386 -0.9817252 7.991113 0.2295513 -0.1319407 5.736698 3.317254 10.42106 -7.70374 -0.5446907 20.49569 7.636209 3.757875 -26.01654 6.768947 7.967051 -16.6662 13.38675 85.79268 39.8652 -20.20659 -0 0 8.916377 -12.1802 12.56653 9.83021 2.125369 -20.85366 -2.873482 -89.74842 23.0518 21.7545 0 0 -21.69803 4.776115 8.078043 9.584616
6.940762 111.4738 54.66205 -0.7851018 0.6509283 2.827238 5.910134 -4.206007 3.973794 -0 13.9035 -0 -8.81533 -11.52674 0.1342412 -2.088734 -14.95612 -6.976895 -0 63.07643 -0 -2.442446 -0.3895638 10.07573 -0.528131 -0.05843277 6.993232 2.758216 11.55359 -7.343524 -0.661133 21.02629 7.18573 3.607045 -24.45718 6.052454 7.704286 -17.90593 13.91389 84.35711 39.72144 -18.00432 -0 0 10.70215 -14.75924 13.04497 10.89705 2.449996 -21.48444 -2.86722 -89.35165 21.05428 21.83107 0 0 -21.2597 6.148338 8.125463 7.373141
7.371329 112.2784 59.43448 -0.2452679 -0.6288053 2.543013 5.597436 0.9158005 3.616124 -0 10.60741 -0 -8.185863 -13.37293 0.4293804 -0.2020674 -21.91377 -4.713375 -0 56.21894 -0 -0.6983192 -0.7348647 12.7716 -0.9787625 0.1422823 7.766873 2.195475 12.42232 -6.987579 -0.7093802 21.33552 6.755768 3.338089 -23.21205 5.625928 6.701885 -19.67562 14.28253 82.87744 39.24214 -15.12337 -0 0 13.49974 -17.02943 13.064 11.71552 3.130483 -21.8033 -2.660711 -89.16596 19.02223 22.33021 0 0 -20.32646 8.036592 8.335851 4.310895
7.757135 112.1017 63.98633 -0.5034671 -1.523625 2.262579 6.139735 5.139304 3.15028 -0 6.638569 -0 -8.014897 -15.67065 0.7406583 2.649183 -27.34981 -2.384165 -0 42.9884 -0 0.5907514 -1.333591 15.63426 -0.8289135 0.4998246 7.858071 1.733441 12.86009 -6.70923 -0.6898478 21.40018 6.263972 2.744741 -22.60514 5.543408 4.735223 -22.01537 14.31232 81.85616 38.30807 -11.87987 -0 0 17.06025 -18.72006 12.48896 12.2289 3.813326 -21.5839 -2.375826 -89.12136 17.30097 23.54609 0 0 -18.60599 9.994343 8.615617 1.05863
8.120178 110.8976 68.59173 -1.517369 -2.344498 1.792861 7.317982 8.928227 2.543144 -0 2.301867 -0 -8.22345 -18.50477 0.8111097 5.895619 -30.05835 -0.251498 -0 25.69836 -0 0.8086826 -1.862271 18.1929 -0.02967994 0.9226541 7.360834 1.464551 12.88195 -6.564754 -0.547224 21.24076 5.566707 1.680671 -22.6095 5.778985 1.833718 -24.80396 13.8187 81.8124 36.53121 -8.859334 -0 0 21.04321 -19.78915 11.45834 12.43019 4.184838 -20.81178 -2.144267 -89.15601 16.02486 25.45717 0 0 -15.95038 11.41541 8.877156 -1.62379
8.527016 108.9567 73.56318 -2.675025 -3.381608 0.9583203 8.265356 12.47613 1.985771 0 -0.6763315 0 -8.014595 -21.28593 0.5905087 8.010538 -29.525 0.9040449 -0 9.90349 -0 -0.06677233 -2.418833 19.7297 1.000775 1.032611 6.826451 1.333577 12.72167 -6.469511 -0.2308209 20.89814 4.669968 0.4060972 -22.5563 6.138943 -1.011471 -27.41473 12.90019 82.58877 33.65239 -6.687774 -0 0 24.90714 -20.46093 10.76273 12.51771 4.237046 -19.8439 -1.991694 -89.37782 15.03578 27.53543 0 0 -12.83077 11.80402 9.081302 -3.082788
